<?xml version="1.0" standalone="no"?>
<!DOCTYPE svg PUBLIC "-//W3C//DTD SVG 20010904//EN"
 "http://www.w3.org/TR/2001/REC-SVG-20010904/DTD/svg10.dtd">
<svg version="1.0" xmlns="http://www.w3.org/2000/svg"
 width="1392.000000pt" height="702.000000pt" viewBox="0 0 1392.000000 702.000000"
 preserveAspectRatio="xMidYMid meet">

<g transform="translate(0.000000,702.000000) scale(0.100000,-0.100000)"
fill="#000000" stroke="none">
<path d="M4635 6824 c-472 -48 -1016 -222 -1429 -456 -547 -310 -910 -691
-1114 -1169 -22 -52 -50 -128 -62 -169 -12 -41 -28 -95 -37 -120 -8 -25 -28
-124 -45 -220 -29 -164 -31 -196 -37 -520 l-6 -345 -80 -7 c-151 -12 -293 -58
-520 -167 -523 -252 -887 -622 -1023 -1041 -50 -154 -57 -202 -57 -390 0 -198
8 -254 66 -442 132 -431 411 -783 801 -1012 214 -125 365 -178 933 -323 226
-58 444 -113 485 -123 41 -10 147 -36 235 -59 88 -22 201 -48 250 -57 139 -25
499 -30 805 -10 140 9 390 23 555 31 2373 120 4532 275 5510 396 676 83 881
123 1400 273 179 52 221 67 229 85 5 11 48 42 95 67 116 63 260 160 352 237
l76 64 99 6 c54 4 209 8 343 9 236 3 244 2 251 -17 3 -11 46 -134 95 -274 l88
-253 268 4 c147 2 270 6 274 9 3 4 -6 33 -20 65 -15 33 -39 91 -55 129 -15 39
-63 153 -105 255 -43 102 -92 221 -110 265 -18 44 -62 151 -99 238 -36 87 -66
160 -66 162 0 2 -11 28 -24 57 -13 29 -54 127 -92 218 -37 91 -80 194 -95 230
-235 564 -266 641 -301 750 -133 419 -425 724 -879 919 -138 59 -231 89 -454
146 -148 38 -331 86 -445 115 l-35 9 0 203 c0 182 -2 211 -23 283 -61 212
-188 371 -398 497 -154 93 -201 108 -864 278 -190 49 -406 104 -480 124 -320
84 -612 95 -956 37 l-108 -19 -71 62 c-286 249 -669 467 -1020 579 -179 58
-1350 352 -1481 372 -104 17 -518 29 -619 19z m1500 -324 c135 -12 265 -31
373 -56 l72 -16 0 -460 0 -459 -265 -287 -264 -287 -1 -478 0 -477 -31 -7
c-85 -17 -119 -121 -59 -182 78 -78 215 -31 215 74 0 51 -29 88 -81 105 l-34
12 0 469 0 470 147 162 c81 89 201 219 265 290 l118 128 0 454 c0 292 4 456
10 460 25 16 321 -95 521 -196 266 -133 527 -322 777 -563 l92 -89 0 -613 0
-613 145 -78 144 -78 1 -162 c0 -155 -1 -163 -20 -163 -29 0 -87 -55 -94 -91
-8 -42 16 -95 56 -119 89 -54 212 18 194 115 -7 38 -65 95 -96 95 -18 0 -20 9
-22 166 l-3 167 -143 81 -143 81 -2 593 c-1 325 1 592 5 592 4 0 59 -60 123
-132 65 -73 126 -138 138 -145 17 -10 28 -7 71 18 160 95 465 186 764 228 436
63 862 -13 1146 -204 190 -128 304 -294 347 -505 19 -93 20 -122 13 -250 -11
-206 -10 -211 13 -230 12 -10 83 -27 184 -44 353 -60 567 -119 784 -218 216
-97 371 -202 510 -342 79 -79 182 -212 173 -222 -3 -2 -120 -7 -260 -11 l-256
-6 -35 -101 c-20 -56 -90 -254 -157 -441 -67 -187 -150 -421 -185 -520 -35
-99 -105 -295 -155 -435 -50 -140 -120 -336 -155 -435 -108 -305 -242 -679
-253 -706 -9 -22 -21 -28 -86 -42 -42 -9 -81 -17 -86 -17 -7 0 -10 444 -10
1241 l0 1240 38 15 c142 58 213 119 262 226 30 64 35 83 35 153 0 70 -5 89
-33 150 -73 155 -219 244 -400 245 -177 0 -322 -86 -403 -240 -21 -39 -24 -59
-24 -150 0 -93 3 -112 26 -160 50 -105 152 -189 273 -225 l41 -12 0 -1259 0
-1259 -70 -12 c-143 -23 -355 -47 -362 -40 -7 7 -12 326 -28 1637 -4 327 -10
678 -14 780 l-6 185 -285 -4 c-157 -1 -288 -6 -292 -9 -4 -4 0 -270 7 -592 8
-322 17 -709 20 -860 3 -151 8 -312 11 -358 3 -46 1 -82 -4 -82 -5 0 -43 55
-85 123 -42 67 -107 172 -146 232 -38 61 -119 189 -179 285 -60 96 -165 263
-232 370 -68 107 -188 299 -268 425 -80 127 -157 250 -171 274 l-26 43 -239
-6 c-132 -3 -293 -6 -359 -6 l-120 0 7 -167 c3 -93 11 -366 16 -608 5 -242 12
-507 15 -590 12 -371 28 -1285 23 -1291 -9 -8 -303 -28 -320 -21 -12 4 -16 53
-22 284 -14 606 -35 1544 -41 1838 -3 171 -8 343 -11 383 l-6 72 -141 0 c-78
0 -213 -3 -300 -7 l-158 -6 -301 -324 c-165 -177 -305 -323 -310 -323 -5 0
-154 142 -331 316 l-322 316 -179 -6 c-99 -3 -251 -6 -339 -6 l-160 0 7 -227
c4 -126 13 -493 21 -818 8 -324 17 -669 20 -765 3 -96 8 -336 11 -532 7 -346
6 -358 -12 -358 -10 0 -150 -7 -311 -16 -161 -8 -303 -14 -314 -12 -17 2 -4
12 50 40 143 75 255 179 331 306 70 119 82 176 81 387 -1 247 -19 1051 -26
1152 -27 393 -336 677 -787 722 -132 14 -681 -3 -773 -23 -251 -56 -454 -177
-578 -344 -50 -68 -111 -200 -127 -272 -12 -56 -15 -595 -4 -625 5 -13 -48
-15 -469 -15 l-475 0 -11 50 c-70 328 -28 643 121 910 215 382 659 725 1159
894 138 46 229 66 310 66 35 0 49 5 55 18 4 9 11 179 15 377 7 380 11 419 59
637 84 379 251 692 537 1006 126 138 113 191 113 -462 l0 -564 -44 -22 c-104
-50 -99 -174 9 -215 45 -18 48 -18 93 1 60 25 88 72 78 128 -9 46 -44 84 -86
92 l-30 7 0 582 0 583 58 49 c380 325 998 617 1527 722 101 20 291 48 375 54
101 8 312 6 425 -3z m-2345 -2025 c30 -16 60 -61 60 -91 0 -9 -15 -31 -34 -50
-44 -44 -99 -47 -144 -9 -54 46 -50 108 10 145 39 24 69 25 108 5z m2310 -520
c64 -33 79 -101 34 -154 -31 -38 -78 -48 -127 -28 -35 15 -67 59 -67 92 0 31
32 77 63 90 42 18 62 18 97 0z m4555 -99 c180 -83 180 -319 0 -402 -165 -77
-365 33 -365 201 0 168 200 278 365 201z m-2295 -36 c34 -23 46 -70 30 -110
-31 -75 -158 -81 -196 -9 -19 37 -18 58 6 96 31 52 104 63 160 23z m3797
-1077 c20 -63 59 -174 191 -551 l51 -143 -16 -52 c-8 -29 -43 -111 -79 -183
l-63 -131 -113 -6 c-62 -4 -169 -7 -237 -7 -113 0 -123 1 -116 18 3 9 19 60
35 112 15 52 49 163 75 245 26 83 71 231 102 330 101 329 135 435 142 435 3 0
16 -30 28 -67z m-8393 -383 c58 -18 79 -31 126 -79 94 -94 99 -114 110 -490 6
-174 11 -445 13 -602 l2 -286 -35 -68 c-66 -130 -164 -181 -380 -197 -284 -21
-458 0 -546 67 -44 34 -93 106 -111 164 -19 61 -48 1160 -32 1228 27 121 120
220 244 259 117 38 493 40 609 4z m2946 -865 c21 -844 26 -1080 23 -1084 -3
-4 -409 -31 -1066 -72 -104 -6 -190 -9 -192 -8 -5 6 -55 1952 -50 1957 3 3
276 -206 543 -415 52 -40 97 -71 100 -69 4 2 144 119 312 260 l305 256 7 -178
c3 -97 11 -388 18 -647z m1742 525 c47 -69 248 -368 448 -665 200 -297 394
-585 432 -640 37 -55 64 -101 60 -102 -34 -10 -994 -94 -1001 -88 -2 3 -10
225 -17 493 -24 950 -27 1147 -16 1137 5 -5 48 -66 94 -135z m4017 -193 c22
-65 41 -123 41 -128 0 -5 -48 -9 -109 -9 l-110 0 59 123 c33 67 60 129 60 137
0 30 18 -8 59 -123z m-10148 -489 c0 -51 4 -196 9 -323 9 -233 18 -289 63
-395 32 -75 146 -207 226 -263 14 -9 23 -19 20 -21 -7 -8 -277 97 -368 144
-288 145 -535 373 -700 645 -43 70 -141 276 -141 295 0 7 147 10 445 10 l445
0 1 -92z m9639 15 c-2 -33 -417 -309 -436 -291 -2 2 18 68 43 146 l47 141 81
4 c171 7 265 7 265 0z"/>
<path d="M10211 4614 c0 -11 3 -14 6 -6 3 7 2 16 -1 19 -3 4 -6 -2 -5 -13z"/>
<path d="M8852 4220 c0 -14 2 -19 5 -12 2 6 2 18 0 25 -3 6 -5 1 -5 -13z"/>
</g>
</svg>
