<svg version="1.2" xmlns="http://www.w3.org/2000/svg" viewBox="0 0 1390 1182" width="1390" height="1182">
	<title>shifttup-svg</title>
	<defs>
		<clipPath clipPathUnits="userSpaceOnUse" id="cp1">
			<path d="m5481.59 0v1190.13h-5481.59v-1190.13z"/>
		</clipPath>
	</defs>
	<style>
		.s0 { fill: #000000 } 
		.s1 { fill: #569a43 } 
	</style>
	<g id="Clip-Path" clip-path="url(#cp1)">
		<g id="Layer">
			<path id="Layer" class="s0" d="m255.1 260.4v-91.1c0-34.3-27.1-62.2-60.5-62.2h-134.1c-33.4 0-60.5 27.9-60.5 62.2v91.1c0 34.3 27.1 62.1 60.5 62.1h134.1q1.3 0 2.7 0h57.8v-60.7c0-0.5 0-0.9 0-1.4z"/>
			<path id="Layer" class="s0" d="m255.1 599.1v-61.8h248.5v-214.7h-248.5v214.7h-194.6c-33.4 0-60.5 27.6-60.5 61.8v90.7c0 34.2 27.1 61.8 60.5 61.8h194.6z"/>
			<path id="Layer" class="s0" d="m254.8 966.6h-194.3c-33.4 0-60.5 27.7-60.5 61.9v90.7c0 34.1 27.1 61.8 60.5 61.8h134.1c33.4 0 60.5-27.7 60.5-61.8v-90.7c0-2-0.1-3.9-0.3-5.9z"/>
			<path id="Layer" class="s0" d="m503.6 751.6v215h-248.5v-215z"/>
			<path id="Layer" class="s0" d="m1008 751.6v215h-248.8v-215z"/>
			<path id="Layer" class="s0" d="m759.2 537.3h-255.5v214.3h255.5v-214h248.8v-215h-248.8z"/>
			<path id="Layer" class="s0" d="m503.7 1064.8v54.4c0 34.1 27.1 61.8 60.6 61.8h133.9c33.5 0 60.6-27.7 60.6-61.8v-152.6h-255.1z"/>
			<path id="Layer" class="s0" d="m503.7 224.4v-54.4c0-34.2 27.1-61.8 60.6-61.8h133.9c33.5 0 60.6 27.6 60.6 61.8v152.5h-255.1z"/>
			<path id="Layer" class="s0" d="m1062 751.6q3.4 0.4 6.9 0.4h134c33.4 0 60.5-27.7 60.5-61.8v-90.7c0-34.2-27.1-61.9-60.5-61.9h-95.3v-0.1h-99.6v214.1h54z"/>
			<path id="Layer" class="s0" d="m1008 1078.4v40.7c0 34.2 27.2 61.9 60.6 61.9h134c33.5 0 60.6-27.7 60.6-61.9v-90.7c0-34.1-27.1-61.8-60.6-61.8h-194.6v111.7z"/>
			<path id="Layer" class="s1" d="m1299 0h-200.2c-50.1 0-90.5 41.6-90.5 93.1v41.8h-0.2v187.6h290.9c50 0 90.5-41.6 90.5-93v-136.4c0-51.4-40.6-93.1-90.5-93.1z"/>
		</g>
	</g>
</svg>