<?xml version="1.0" standalone="no"?>
<!DOCTYPE svg PUBLIC "-//W3C//DTD SVG 20010904//EN"
 "http://www.w3.org/TR/2001/REC-SVG-20010904/DTD/svg10.dtd">
<svg version="1.0" xmlns="http://www.w3.org/2000/svg"
 width="200.000000pt" height="200.000000pt" viewBox="0 0 200.000000 200.000000"
 preserveAspectRatio="xMidYMid meet">

<g transform="translate(0.000000,200.000000) scale(0.100000,-0.100000)"
fill="#000000" stroke="none">
<path d="M1432 1458 c-146 -147 -153 -152 -174 -138 -61 38 -128 69 -177 80
-100 23 -232 -2 -319 -62 -47 -32 -42 -34 -108 29 -46 43 -42 53 44 105 74 45
156 74 240 83 52 6 62 10 62 26 0 16 -7 19 -46 19 -94 0 -233 -50 -317 -114
-26 -20 -50 -36 -53 -36 -3 0 -17 9 -32 20 -23 19 -27 19 -41 6 -13 -14 -13
-18 7 -39 28 -29 28 -36 -3 -69 -36 -39 -80 -125 -104 -203 -29 -93 -29 -247
0 -341 63 -206 219 -360 424 -420 81 -23 239 -23 320 0 245 72 420 281 450
539 6 55 6 57 -17 57 -23 0 -25 -5 -36 -86 -37 -278 -274 -484 -557 -484 -308
0 -564 255 -565 564 0 117 49 261 120 346 l29 35 52 -51 52 -52 -30 -43 c-57
-86 -68 -124 -68 -239 0 -98 2 -109 33 -173 42 -86 113 -157 199 -199 65 -31
73 -33 178 -32 118 0 170 15 243 71 26 20 36 22 47 13 15 -13 45 -7 45 8 0 5
-58 68 -130 140 -187 190 -200 147 144 491 252 252 293 301 252 301 -6 0 -80
-69 -164 -152z m-362 -102 c64 -15 115 -39 148 -69 l23 -21 -101 -101 c-100
-100 -102 -101 -145 -99 -40 2 -50 9 -143 103 l-100 100 22 19 c30 28 83 53
141 67 66 17 89 17 155 1z m-248 -223 c90 -91 97 -101 100 -141 2 -37 -3 -47
-36 -81 -25 -25 -37 -45 -33 -55 9 -24 19 -20 62 24 33 34 45 40 80 40 38 0
46 -6 139 -99 58 -58 97 -105 94 -113 -3 -7 -36 -29 -74 -48 -64 -32 -76 -35
-159 -35 -82 0 -96 3 -157 34 -162 81 -246 254 -204 419 18 71 64 152 85 152
4 0 50 -44 103 -97z"/>
<path d="M1248 1585 c-53 -30 -43 -112 18 -135 30 -12 69 2 83 29 38 70 -32
144 -101 106z m61 -44 c19 -12 4 -51 -20 -51 -22 0 -34 22 -25 45 6 17 24 19
45 6z"/>
<path d="M1489 1311 c-49 -40 -18 -131 46 -131 37 0 75 37 75 74 0 65 -70 99
-121 57z m75 -45 c9 -13 7 -20 -7 -31 -25 -18 -47 -8 -47 20 0 37 34 44 54 11z"/>
</g>
</svg>
